HIERARCHY
ROOT hip
{
  OFFSET 0 0 0
  CHANNELS 6 Xposition Yposition Zposition Zrotation Yrotation Xrotation
  JOINT abdomen
  {
    OFFSET 0 20.6881 -0.73152
    CHANNELS 3 Zrotation Xrotation Yrotation
    JOINT chest
    {
      OFFSET 0 11.7043 -0.48768
      CHANNELS 3 Zrotation Xrotation Yrotation
      JOINT neck
      {
        OFFSET 0 22.1894 -2.19456
        CHANNELS 3 Zrotation Xrotation Yrotation
        JOINT head
        {
          OFFSET -0.24384 7.07133 1.2192
          CHANNELS 3 Zrotation Xrotation Yrotation
          JOINT leftEye
          {
            OFFSET 4.14528 8.04674 8.04672
            CHANNELS 3 Zrotation Xrotation Yrotation
            End Site
            {
              OFFSET 1 0 0
            }
          }
          JOINT rightEye
          {
            OFFSET -3.6576 8.04674 8.04672
            CHANNELS 3 Zrotation Xrotation Yrotation
            End Site
            {
              OFFSET 1 0 0
            }
          }
        }
      }
      JOINT rCollar
      {
        OFFSET -2.68224 19.2634 -4.8768
        CHANNELS 3 Zrotation Xrotation Yrotation
        JOINT rShldr
        {
          OFFSET -8.77824 -1.95073 1.46304
          CHANNELS 3 Zrotation Xrotation Yrotation
          JOINT rForeArm
          {
            OFFSET -28.1742 -1.7115 0.48768
            CHANNELS 3 Zrotation Xrotation Yrotation
            JOINT rHand
            {
              OFFSET -22.5879 0.773209 7.07136
              CHANNELS 3 Zrotation Xrotation Yrotation
              JOINT rThumb1
              {
                OFFSET -1.2192 -0.487915 3.41376
                CHANNELS 3 Zrotation Xrotation Yrotation
                JOINT rThumb2
                {
                  OFFSET -3.37035 -0.52449 3.41376
                  CHANNELS 3 Zrotation Xrotation Yrotation
                  End Site
                  {
                    OFFSET -1.78271 -1.18214 1.43049
                  }
                }
              }
              JOINT rIndex1
              {
                OFFSET -7.75947 0.938293 5.60832
                CHANNELS 3 Zrotation Xrotation Yrotation
                JOINT rIndex2
                {
                  OFFSET -2.54057 -0.884171 1.56538
                  CHANNELS 3 Zrotation Xrotation Yrotation
                  End Site
                  {
                    OFFSET -1.62519 -0.234802 1.16502
                  }
                }
              }
              JOINT rMid1
              {
                OFFSET -8.24714 1.18213 3.41376
                CHANNELS 3 Zrotation Xrotation Yrotation
                JOINT rMid2
                {
                  OFFSET -3.10165 -0.590103 1.0647
                  CHANNELS 3 Zrotation Xrotation Yrotation
                  End Site
                  {
                    OFFSET -2.48547 -0.328903 0.83742
                  }
                }
              }
              JOINT rRing1
              {
                OFFSET -8.82822 0.546677 1.51678
                CHANNELS 3 Zrotation Xrotation Yrotation
                JOINT rRing2
                {
                  OFFSET -2.60934 -0.819778 -0.0198488
                  CHANNELS 3 Zrotation Xrotation Yrotation
                  End Site
                  {
                    OFFSET -2.33842 -0.294052 0.168128
                  }
                }
              }
              JOINT rPinky1
              {
                OFFSET -8.27202 -0.0477905 -0.4584
                CHANNELS 3 Zrotation Xrotation Yrotation
                JOINT rPinky2
                {
                  OFFSET -1.82734 -0.647385 -0.700984
                  CHANNELS 3 Zrotation Xrotation Yrotation
                  End Site
                  {
                    OFFSET -1.69225 -0.51767 -0.607171
                  }
                }
              }
            }
          }
        }
      }
      JOINT lCollar
      {
        OFFSET 2.68224 19.2634 -4.8768
        CHANNELS 3 Zrotation Xrotation Yrotation
        JOINT lShldr
        {
          OFFSET 8.77824 -1.95073 1.46304
          CHANNELS 3 Zrotation Xrotation Yrotation
          JOINT lForeArm
          {
            OFFSET 28.1742 -1.7115 0.48768
            CHANNELS 3 Zrotation Xrotation Yrotation
            JOINT lHand
            {
              OFFSET 22.5879 0.773209 7.07136
              CHANNELS 3 Zrotation Xrotation Yrotation
              JOINT lThumb1
              {
                OFFSET 1.2192 -0.487915 3.41376
                CHANNELS 3 Zrotation Xrotation Yrotation
                JOINT lThumb2
                {
                  OFFSET 3.37035 -0.52449 3.41376
                  CHANNELS 3 Zrotation Xrotation Yrotation
                  End Site
                  {
                    OFFSET 1.78271 -1.18214 1.43049
                  }
                }
              }
              JOINT lIndex1
              {
                OFFSET 7.75947 0.938293 5.60832
                CHANNELS 3 Zrotation Xrotation Yrotation
                JOINT lIndex2
                {
                  OFFSET 2.54057 -0.884171 1.56538
                  CHANNELS 3 Zrotation Xrotation Yrotation
                  End Site
                  {
                    OFFSET 1.62519 -0.234802 1.16502
                  }
                }
              }
              JOINT lMid1
              {
                OFFSET 8.24714 1.18213 3.41376
                CHANNELS 3 Zrotation Xrotation Yrotation
                JOINT lMid2
                {
                  OFFSET 3.10165 -0.590103 1.0647
                  CHANNELS 3 Zrotation Xrotation Yrotation
                  End Site
                  {
                    OFFSET 2.48547 -0.328903 0.83742
                  }
                }
              }
              JOINT lRing1
              {
                OFFSET 8.82822 0.546677 1.51678
                CHANNELS 3 Zrotation Xrotation Yrotation
                JOINT lRing2
                {
                  OFFSET 2.60934 -0.819778 -0.0198488
                  CHANNELS 3 Zrotation Xrotation Yrotation
                  End Site
                  {
                    OFFSET 2.33842 -0.294052 0.168128
                  }
                }
              }
              JOINT lPinky1
              {
                OFFSET 8.27202 -0.0477905 -0.4584
                CHANNELS 3 Zrotation Xrotation Yrotation
                JOINT lPinky2
                {
                  OFFSET 1.82734 -0.647385 -0.700984
                  CHANNELS 3 Zrotation Xrotation Yrotation
                  End Site
                  {
                    OFFSET 1.69225 -0.51767 -0.607171
                  }
                }
              }
            }
          }
        }
      }
    }
  }
  JOINT rButtock
  {
    OFFSET -8.77824 4.35084 1.2192
    CHANNELS 3 Zrotation Xrotation Yrotation
    JOINT rThigh
    {
      OFFSET 0 -1.70687 -2.19456
      CHANNELS 3 Zrotation Xrotation Yrotation
      JOINT rShin
      {
        OFFSET 0 -36.8199 0.73152
        CHANNELS 3 Zrotation Xrotation Yrotation
        JOINT rFoot
        {
          OFFSET 0.73152 -45.1104 -5.12064
          CHANNELS 3 Zrotation Xrotation Yrotation
          End Site
          {
            OFFSET -1.1221 -3.69964 12.103
          }
        }
      }
    }
  }
  JOINT lButtock
  {
    OFFSET 8.77824 4.35084 1.2192
    CHANNELS 3 Zrotation Xrotation Yrotation
    JOINT lThigh
    {
      OFFSET 0 -1.70687 -2.19456
      CHANNELS 3 Zrotation Xrotation Yrotation
      JOINT lShin
      {
        OFFSET 0 -36.8199 0.73152
        CHANNELS 3 Zrotation Xrotation Yrotation
        JOINT lFoot
        {
          OFFSET -0.73152 -45.1104 -5.12064
          CHANNELS 3 Zrotation Xrotation Yrotation
          End Site
          {
            OFFSET 1.1221 -3.69964 12.103
          }
        }
      }
    }
  }
}
MOTION
Frames:	8
Frame Time:	0.00833333
-88.0466 82.8934 39.0488 7.9204 69.2352 14.2709 -5.71561 5.25814 6.51235 0.126361 0.70846 1.81417 -2.13745 10.8467 6.53025 -2.72082 3.38875 14.1913 -0.0 0.0 0.0 -0.0 0.0 0.0 -9.76882e-14 4.84237e-13 2.17446e-13 78.256 19.9841 -0.69629 -14.5121 -7.37524 26.5899 -0.0412634 -5.78844 -0.816318 2.12596e-10 -1.75479e-09 1.98591e-09 3.59914e-10 -3.0399e-09 3.43552e-09 2.12604e-10 -1.7548e-09 1.98591e-09 7.73091 5.47488 0.417314 2.12597e-10 -1.75479e-09 1.98591e-09 2.90554 0.965183 0.102902 2.12604e-10 -1.75479e-09 1.98591e-09 10.2786 0.731801 0.0259123 2.12592e-10 -1.75479e-09 1.98592e-09 2.22167 -0.733487 -0.20892 -9.76552e-14 4.8424e-13 2.17281e-13 -72.794 18.0934 3.54114 15.2026 -7.96806 -28.0042 0.281126 -14.9432 2.14937 1.85383e-10 2.38597e-09 4.73114e-10 3.07713e-10 4.14314e-09 8.24841e-10 1.85378e-10 2.38597e-09 4.73132e-10 -7.73091 5.47488 -0.417314 1.85384e-10 2.38597e-09 4.73114e-10 -2.90554 0.965183 -0.102902 1.85377e-10 2.38597e-09 4.73115e-10 -10.2786 0.731801 -0.0259123 1.85384e-10 2.38597e-09 4.73107e-10 -2.22167 -0.733487 0.20892 -2.03217e-16 0.0 -3.88251e-19 -8.85987 -29.3227 -31.9094 -0.190782 34.7857 0.948571 -15.9408 -16.1942 -37.7261 2.03217e-16 0.0 3.88251e-19 -7.56031 -16.6497 8.90716 0.0524757 25.0136 -0.674014 9.61854 -23.416 19.6647
-88.0826 82.8799 38.9828 8.4669 69.7795 14.7388 -5.96057 5.30952 6.5063 0.048119 0.700356 1.81033 -2.11332 10.8335 6.48007 -2.71546 3.29049 14.0944 -0.0 0.0 0.0 -0.0 0.0 0.0 -1.18413e-13 1.02345e-12 1.54553e-13 78.3869 19.9574 -0.77471 -14.5609 -7.41608 26.6893 -0.0404915 -5.73407 -0.808598 2.25177e-10 -1.87373e-09 1.24018e-09 3.82006e-10 -3.24486e-09 2.14614e-09 2.25187e-10 -1.87373e-09 1.24017e-09 7.73091 5.47488 0.417314 2.25177e-10 -1.87373e-09 1.24017e-09 2.90554 0.965183 0.102902 2.25185e-10 -1.87373e-09 1.24017e-09 10.2786 0.731801 0.0259123 2.25175e-10 -1.87373e-09 1.24018e-09 2.22167 -0.733487 -0.20892 -1.18359e-13 1.02345e-12 1.54434e-13 -72.5964 16.7339 3.57428 15.043 -7.82841 -27.6751 0.262585 -14.4498 2.07527 5.09607e-10 2.88253e-09 1.28361e-09 8.60504e-10 5.01049e-09 2.23119e-09 5.09604e-10 2.88253e-09 1.28363e-09 -7.73091 5.47488 -0.417314 5.09608e-10 2.88253e-09 1.28361e-09 -2.90554 0.965183 -0.102902 5.09603e-10 2.88253e-09 1.28361e-09 -10.2786 0.731801 -0.0259123 5.09609e-10 2.88254e-09 1.28361e-09 -2.22167 -0.733487 0.20892 -2.03217e-16 0.0 -3.88251e-19 -9.41724 -29.4141 -32.5367 -0.197647 35.4339 0.988449 -16.4869 -17.7119 -36.8873 2.03217e-16 0.0 3.88251e-19 -7.65007 -16.6268 8.69329 0.0505009 25.0358 -0.671825 9.47436 -23.181 19.5343
-88.1427 82.8682 38.9399 8.8319 70.3565 15.062 -6.1937 5.35392 6.48833 0.00682801 0.703117 1.80288 -2.11967 10.82 6.42734 -2.68408 3.20349 13.9953 -0.0 0.0 0.0 -0.0 0.0 0.0 -1.04591e-13 1.07011e-12 5.889e-14 78.4641 19.9525 -0.824542 -14.5908 -7.44111 26.7504 -0.0401162 -5.70722 -0.804788 2.04885e-10 -1.30436e-09 6.19747e-10 3.48706e-10 -2.25791e-09 1.07275e-09 2.04897e-10 -1.30436e-09 6.19734e-10 7.73091 5.47488 0.417314 2.04885e-10 -1.30436e-09 6.19747e-10 2.90554 0.965183 0.102902 2.04893e-10 -1.30436e-09 6.19745e-10 10.2786 0.731801 0.0259123 2.04885e-10 -1.30436e-09 6.1975e-10 2.22167 -0.733487 -0.20892 -1.04538e-13 1.07011e-12 5.87906e-14 -72.4307 15.6182 3.61941 14.9154 -7.71726 -27.4146 0.251711 -14.141 2.02917 5.48178e-10 2.61446e-09 1.39877e-09 9.27447e-10 4.5472e-09 2.43084e-09 5.48176e-10 2.61446e-09 1.39879e-09 -7.73091 5.47488 -0.417314 5.4818e-10 2.61446e-09 1.39877e-09 -2.90554 0.965183 -0.102902 5.48176e-10 2.61446e-09 1.39877e-09 -10.2786 0.731801 -0.0259123 5.48182e-10 2.61446e-09 1.39877e-09 -2.22167 -0.733487 0.20892 -2.03217e-16 0.0 -3.88251e-19 -9.97407 -29.5047 -33.1152 -0.206859 36.0851 1.01741 -16.7037 -18.6538 -36.2024 2.03217e-16 0.0 3.88251e-19 -7.72627 -16.6201 8.48564 0.0491815 25.0793 -0.669301 9.29796 -22.9691 19.3195
-88.1932 82.8564 38.9055 9.1328 70.9411 15.3131 -6.42401 5.39249 6.44309 0.0176345 0.72265 1.78721 -2.17466 10.8063 6.37378 -2.60784 3.13302 13.8987 -0.0 0.0 0.0 -0.0 0.0 0.0 -2.62854e-14 2.43079e-13 -1.1427e-13 78.4672 19.9905 -0.824612 -14.5959 -7.44535 26.761 -0.0403552 -5.72428 -0.807209 1.14102e-10 5.81133e-10 6.86234e-11 1.96451e-10 1.00838e-09 1.17868e-10 1.14114e-10 5.81134e-10 6.86114e-11 7.73091 5.47488 0.417314 1.14103e-10 5.81133e-10 6.86277e-11 2.90554 0.965183 0.102902 1.14111e-10 5.81131e-10 6.86225e-11 10.2786 0.731801 0.0259123 1.14104e-10 5.81134e-10 6.86288e-11 2.22167 -0.733487 -0.20892 -2.62704e-14 2.43079e-13 -1.14388e-13 -72.3065 14.8458 3.68599 14.8358 -7.64829 -27.2528 0.250565 -14.103 2.02356 1.17321e-10 9.89116e-10 3.6315e-10 1.96456e-10 1.72271e-09 6.33355e-10 1.17317e-10 9.89118e-10 3.63161e-10 -7.73091 5.47488 -0.417314 1.17322e-10 9.89119e-10 3.63149e-10 -2.90554 0.965183 -0.102902 1.17318e-10 9.89119e-10 3.6315e-10 -10.2786 0.731801 -0.0259123 1.17324e-10 9.8912e-10 3.63143e-10 -2.22167 -0.733487 0.20892 -2.03217e-16 0.0 -3.88251e-19 -10.5484 -29.5955 -33.6517 -0.218259 36.7496 1.03114 -16.5219 -18.7794 -35.7213 2.03217e-16 0.0 3.88251e-19 -7.79027 -16.6322 8.29829 0.0487457 25.1525 -0.666175 9.06999 -22.7807 18.9777
-88.2313 82.8493 38.8461 9.7301 71.487 15.8629 -6.6451 5.42622 6.37634 0.0638068 0.754734 1.76517 -2.25789 10.7896 6.31591 -2.50399 3.08096 13.7968 -0.0 0.0 0.0 -0.0 0.0 0.0 9.96237e-14 -1.1531e-12 -3.60257e-13 78.4212 20.0473 -0.795466 -14.5836 -7.43501 26.7359 -0.040959 -5.76697 -0.813269 -1.85935e-11 3.48418e-09 -5.83194e-10 -2.58443e-11 6.037e-09 -1.0121e-09 -1.85826e-11 3.48418e-09 -5.83203e-10 7.73091 5.47488 0.417314 -1.85922e-11 3.48418e-09 -5.83184e-10 2.90554 0.965183 0.102902 -1.85836e-11 3.48418e-09 -5.83192e-10 10.2786 0.731801 0.0259123 -1.85884e-11 3.48418e-09 -5.83185e-10 2.22167 -0.733487 -0.20892 9.95744e-14 -1.1531e-12 -3.60418e-13 -72.2105 14.3102 3.75958 14.7894 -7.60859 -27.1577 0.255687 -14.2453 2.04482 -6.1692e-10 -1.62832e-09 -1.4431e-09 -1.04943e-09 -2.82713e-09 -2.50151e-09 -6.16926e-10 -1.62832e-09 -1.44309e-09 -7.73091 5.47488 -0.417314 -6.16918e-10 -1.62832e-09 -1.4431e-09 -2.90554 0.965183 -0.102902 -6.16922e-10 -1.62832e-09 -1.4431e-09 -10.2786 0.731801 -0.0259123 -6.16917e-10 -1.62831e-09 -1.44311e-09 -2.22167 -0.733487 0.20892 -2.03217e-16 0.0 -3.88251e-19 -11.1268 -29.6852 -34.1421 -0.230866 37.4313 1.03752 -16.1508 -18.5021 -35.3291 2.03217e-16 0.0 3.88251e-19 -7.84023 -16.6583 8.1251 0.0488508 25.2486 -0.66259 8.80732 -22.5902 18.5578
-88.2544 82.8435 38.7988 10.0241 72.0921 16.093 -6.84142 5.45176 6.31829 0.123845 0.789247 1.74575 -2.34386 10.7719 6.25248 -2.40179 3.03409 13.6852 -0.0 0.0 0.0 -0.0 0.0 0.0 2.18443e-13 -2.48927e-12 -5.81938e-13 78.3532 20.0933 -0.769371 -14.5619 -7.41681 26.6916 -0.0416081 -5.81216 -0.819687 -1.29995e-10 6.21614e-09 -1.0822e-09 -2.1185e-10 1.0769e-08 -1.87763e-09 -1.29985e-10 6.21614e-09 -1.08221e-09 7.73091 5.47488 0.417314 -1.29993e-10 6.21614e-09 -1.08219e-09 2.90554 0.965183 0.102902 -1.29984e-10 6.21614e-09 -1.0822e-09 10.2786 0.731801 0.0259123 -1.29988e-10 6.21615e-09 -1.08219e-09 2.22167 -0.733487 -0.20892 2.18328e-13 -2.48927e-12 -5.82149e-13 -72.1318 13.8674 3.8271 14.7541 -7.57892 -27.0846 0.26286 -14.4419 2.07425 -1.36558e-09 -4.1783e-09 -3.28034e-09 -2.32029e-09 -7.26049e-09 -5.6901e-09 -1.36559e-09 -4.17829e-09 -3.28033e-09 -7.73091 5.47488 -0.417314 -1.36558e-09 -4.1783e-09 -3.28035e-09 -2.90554 0.965183 -0.102902 -1.36558e-09 -4.1783e-09 -3.28034e-09 -10.2786 0.731801 -0.0259123 -1.36558e-09 -4.17829e-09 -3.28035e-09 -2.22167 -0.733487 0.20892 -2.03217e-16 0.0 -3.88251e-19 -11.6768 -29.7765 -34.574 -0.244099 38.1039 1.03944 -15.6712 -17.9988 -34.9753 2.03217e-16 0.0 3.88251e-19 -7.87513 -16.6962 7.93876 0.049223 25.3541 -0.659042 8.54377 -22.4138 18.1193
-88.269 82.8393 38.7585 10.2866 72.6885 16.2789 -6.99746 5.46579 6.29914 0.176215 0.816068 1.73793 -2.40705 10.7555 6.18222 -2.33063 2.97917 13.5592 -0.0 0.0 0.0 -0.0 0.0 0.0 2.75477e-13 -3.13626e-12 -6.82179e-13 78.2905 20.0988 -0.778646 -14.5388 -7.39746 26.6445 -0.0419656 -5.83674 -0.823178 -1.56897e-10 7.58836e-09 -1.17491e-09 -2.55236e-10 1.31453e-08 -2.03917e-09 -1.56888e-10 7.58836e-09 -1.17491e-09 7.73091 5.47488 0.417314 -1.56895e-10 7.58837e-09 -1.17489e-09 2.90554 0.965183 0.102902 -1.56886e-10 7.58836e-09 -1.1749e-09 10.2786 0.731801 0.0259123 -1.56889e-10 7.58837e-09 -1.17489e-09 2.22167 -0.733487 -0.20892 2.75324e-13 -3.13626e-12 -6.82428e-13 -72.0592 13.3732 3.87576 14.7076 -7.53982 -26.989 0.267542 -14.5671 2.09302 -1.8397e-09 -5.60128e-09 -4.40894e-09 -3.12623e-09 -9.7355e-09 -7.64877e-09 -1.83971e-09 -5.60128e-09 -4.40893e-09 -7.73091 5.47488 -0.417314 -1.8397e-09 -5.60128e-09 -4.40895e-09 -2.90554 0.965183 -0.102902 -1.8397e-09 -5.60128e-09 -4.40895e-09 -10.2786 0.731801 -0.0259123 -1.83969e-09 -5.60128e-09 -4.40895e-09 -2.22167 -0.733487 0.20892 -2.03217e-16 0.0 -3.88251e-19 -12.166 -29.8722 -34.9353 -0.257542 38.7415 1.03984 -15.1601 -17.448 -34.6065 2.03217e-16 0.0 3.88251e-19 -7.89403 -16.7436 7.71197 0.0495953 25.4553 -0.656024 8.31169 -22.2688 17.7213
-88.2878 82.8355 38.7096 10.7239 73.2114 16.6521 -7.09962 5.45926 6.32835 0.233063 0.835038 1.74451 -2.44308 10.7457 6.10282 -2.31779 2.91034 13.4147 -0.0 0.0 0.0 -0.0 0.0 0.0 2.32831e-13 -2.57779e-12 -5.93389e-13 78.2183 20.058 -0.835834 -14.5144 -7.37706 26.5947 -0.0419105 -5.83286 -0.822627 -1.3459e-11 6.88889e-09 -5.92358e-10 -9.5695e-12 1.19325e-08 -1.03087e-09 -1.34504e-11 6.88889e-09 -5.92359e-10 7.73091 5.47488 0.417314 -1.34584e-11 6.88889e-09 -5.92339e-10 2.90554 0.965183 0.102902 -1.34487e-11 6.88888e-09 -5.92351e-10 10.2786 0.731801 0.0259123 -1.34536e-11 6.8889e-09 -5.9234e-10 2.22167 -0.733487 -0.20892 2.32677e-13 -2.57778e-12 -5.9366e-13 -72.0099 12.7524 3.89863 14.6384 -7.48146 -26.8473 0.26812 -14.582 2.09526 -1.8866e-09 -5.34502e-09 -4.52636e-09 -3.20779e-09 -9.29248e-09 -7.85191e-09 -1.88661e-09 -5.34502e-09 -4.52635e-09 -7.73091 5.47488 -0.417314 -1.8866e-09 -5.34502e-09 -4.52637e-09 -2.90554 0.965183 -0.102902 -1.8866e-09 -5.34502e-09 -4.52637e-09 -10.2786 0.731801 -0.0259123 -1.8866e-09 -5.34502e-09 -4.52637e-09 -2.22167 -0.733487 0.20892 -2.03217e-16 0.0 -3.88251e-19 -12.5939 -29.9812 -35.2522 -0.271594 39.3431 1.0371 -14.5721 -16.7564 -34.2399 2.03217e-16 0.0 3.88251e-19 -7.89363 -16.8047 7.42696 0.0499237 25.5523 -0.653889 8.11668 -22.1794 17.3637
